# xmcd CD database file
#
# Track frame offsets:
#	150
#	26192
#	50837
#	88302
#
# Disc length: 4440 seconds
#
# Revision: 0
# Processed by: cddbd v1.5PL3 Copyright (c) Steve Scherf et al.
# Submitted via: CDex 1.40Release
#
DISCID=36115604
DTITLE=大黒摩季 -  夏が来る、そして…
DYEAR=2003
DGENRE=ロック (日本)
TTITLE0=夏が来る、そして…
TTITLE1=flowin 
TTITLE2=夏が来る、そして…（instrumental）
TTITLE3=CCCD
EXTD=YEAR: 2003
EXTT0=
EXTT1=
EXTT2=
EXTT3=
PLAYORDER=
